<svg width="551" height="122" viewBox="0 0 551 122" fill="none" xmlns="http://www.w3.org/2000/svg">
<path d="M78.9648 107.876C75.8333 112.362 71.4535 115.726 65.8252 117.969C60.2393 120.169 53.7223 121.27 46.2744 121.27C38.7419 121.27 32.0557 119.513 26.2158 116.001C20.376 112.446 15.848 107.41 12.6318 100.894C9.45801 94.3766 7.82878 86.8229 7.74414 78.2324V70.1709C7.74414 56.2484 10.9814 45.4574 17.4561 37.7979C23.973 30.1383 33.1136 26.3086 44.8779 26.3086C54.5264 26.3086 62.2917 28.7842 68.1738 33.7354C74.056 38.6442 77.653 45.6266 78.9648 54.6826H66.7773C64.4922 42.4528 57.2135 36.3379 44.9414 36.3379C36.7741 36.3379 30.5745 39.2155 26.3428 44.9707C22.1533 50.6836 20.0374 58.9779 19.9951 69.8535V77.4072C19.9951 87.7751 22.3649 96.027 27.1045 102.163C31.8441 108.257 38.2552 111.304 46.3379 111.304C50.9082 111.304 54.9072 110.796 58.335 109.78C61.7627 108.765 64.598 107.051 66.8408 104.639V83.8818H45.4492V73.9795H78.9648V107.876ZM299.355 120H287.104L240.576 48.7793V120H228.325V27.5781H240.576L287.231 99.1162V27.5781H299.355V120ZM418.311 27.5781V90.4199C418.268 99.1374 415.518 106.268 410.059 111.812C404.642 117.355 397.279 120.465 387.969 121.143L384.731 121.27C374.618 121.27 366.556 118.54 360.547 113.081C354.538 107.622 351.491 100.111 351.406 90.5469V27.5781H363.467V90.166C363.467 96.8522 365.308 102.057 368.989 105.781C372.671 109.463 377.918 111.304 384.731 111.304C391.629 111.304 396.898 109.463 400.537 105.781C404.219 102.1 406.06 96.9157 406.06 90.2295V27.5781H418.311ZM497.021 78.8037C486.569 75.7992 478.952 72.1175 474.17 67.7588C469.43 63.3577 467.061 57.9411 467.061 51.5088C467.061 44.2301 469.959 38.221 475.757 33.4814C481.597 28.6995 489.172 26.3086 498.481 26.3086C504.829 26.3086 510.479 27.5358 515.43 29.9902C520.423 32.4447 524.274 35.8301 526.982 40.1465C529.733 44.4629 531.108 49.1813 531.108 54.3018H518.857C518.857 48.7158 517.08 44.3359 513.525 41.1621C509.971 37.946 504.956 36.3379 498.481 36.3379C492.472 36.3379 487.775 37.6709 484.39 40.3369C481.047 42.9606 479.375 46.6211 479.375 51.3184C479.375 55.0846 480.962 58.2796 484.136 60.9033C487.352 63.4847 492.79 65.8545 500.449 68.0127C508.151 70.1709 514.16 72.5618 518.477 75.1855C522.835 77.7669 526.051 80.7926 528.125 84.2627C530.241 87.7327 531.299 91.8164 531.299 96.5137C531.299 104.004 528.379 110.013 522.539 114.541C516.699 119.027 508.892 121.27 499.116 121.27C492.769 121.27 486.844 120.063 481.343 117.651C475.841 115.197 471.589 111.854 468.584 107.622C465.622 103.39 464.141 98.5872 464.141 93.2129H476.392C476.392 98.7988 478.444 103.221 482.549 106.479C486.696 109.696 492.218 111.304 499.116 111.304C505.549 111.304 510.479 109.992 513.906 107.368C517.334 104.744 519.048 101.169 519.048 96.6406C519.048 92.1126 517.461 88.6214 514.287 86.167C511.113 83.6702 505.358 81.2158 497.021 78.8037Z" fill="#F2994A"/>
<rect x="125.585" y="71" width="63.0775" height="18" transform="rotate(32.1743 125.585 71)" fill="#BB6BD9"/>
<rect x="125.585" y="59" width="63.0775" height="18" transform="rotate(32.1743 125.585 59)" fill="#56CCF2"/>
<rect x="125.632" y="47.0697" width="63.0775" height="18" transform="rotate(32.1743 125.632 47.0697)" fill="#F2994A"/>
<rect x="116" y="61.4912" width="42.7203" height="18" transform="rotate(-58.6703 116 61.4912)" fill="#F2994A"/>
<rect x="141" y="63.201" width="24.8201" height="18" transform="rotate(-58.6703 141 63.201)" fill="#F2994A"/>
<rect x="155" y="109.491" width="42.7203" height="18" transform="rotate(-58.6703 155 109.491)" fill="#BB6BD9"/>
<rect x="155" y="98.4912" width="42.7203" height="18" transform="rotate(-58.6703 155 98.4912)" fill="#56CCF2"/>
<rect x="155" y="86.4912" width="42.7203" height="18" transform="rotate(-58.6703 155 86.4912)" fill="#F2994A"/>
</svg>
